# xmcd
#
# Track frame offsets: 
#        150
#        12922
#        24215
#        35977
#        54632
#        66297
#        78935
#        92072
#        104497
#        112230
#        124212
#        136830
#        148435
#        162295
#        174507
#        186602
#        204092
#        216082
#        228755
#        239882
#        250737
#        266960
#        278167
#        291180
#        300450
#        312722
#
# Disc length: 4319 seconds
#
# Revision: 3
# Processed by: cddbd v1.5.2PL0 Copyright (c) Steve Scherf et al.
# Submitted via: ExactAudioCopy v1.1
#
DISCID=9210dd1a
DTITLE=Bob Wills and His Texas Playboys - San Antonio Rose - Disc 8
DYEAR=2000
DGENRE=Country
TTITLE0=Stars And Stripes On Iwo Jima (mono)
TTITLE1=Silver Dew On The Blue Grass Tonight (mono)
TTITLE2=I'm So Glad I Met You (mono)
TTITLE3=New Spanish Two Step (master - take 1) (mono)
TTITLE4=Empty Chair At The Christmas Table (mono)
TTITLE5=I'm Feelin' Bad (master - take 1) (mono)
TTITLE6=White Cross On Okinawa (mono)
TTITLE7=This Is Southland (inst) (master - take 1) (mono)
TTITLE8=Cotton Eyed Joe (rehearsal) (mono)
TTITLE9=Cotton Eyed Joe (master - take 1) (mono)
TTITLE10=Staccato Waltz (master - take 1) (mono)
TTITLE11=Punkin' Stomp (inst) (master - take 1) (mono)
TTITLE12=Sugar Moon (master - take 1) (mono)
TTITLE13=Rose Of Old Pawnee (mono)
TTITLE14=How Can It Be Wrong (master - take 1) (mono)
TTITLE15=Brain Cloudy Blues (master - take 1) (mono)
TTITLE16=Bob Wills Boogie (inst) (mono)
TTITLE17=There's A Big Rock In The Road (mono)
TTITLE18=I Got A Cinder In My Eye (mono)
TTITLE19=Go To Sleep Our Baby (mono)
TTITLE20=Virginia (master - take 1) (mono)
TTITLE21=I'm Gonna Be Boss From Now On (master - take 1) (mono)
TTITLE22=Fat Boy Rag (inst) (mono)
TTITLE23=Drum Test (inst) (mono)
TTITLE24=The Kind Of Love I Can't Forget (mono)
TTITLE25=There's Two Sides To Every Story (master - take 3) (mono)
EXTD=
EXTT0=
EXTT1=
EXTT2=
EXTT3=
EXTT4=
EXTT5=
EXTT6=
EXTT7=
EXTT8=
EXTT9=
EXTT10=
EXTT11=
EXTT12=
EXTT13=
EXTT14=
EXTT15=
EXTT16=
EXTT17=
EXTT18=
EXTT19=
EXTT20=
EXTT21=
EXTT22=
EXTT23=
EXTT24=
EXTT25=
PLAYORDER=
